# xmcd
#
# Track frame offsets:
#	183
#	13785
#	24888
#	36808
#	50313
#	63215
#	76303
#	90013
#	101213
#	113925
#	127145
#	139343
#	152358
#	164378
#	177030
#	187433
#	201155
#	214078
#	230438
#	245068
#	263000
#	278180
#	293928
#	305255
#	318453
#	333505
#
# Disc length: 4643
#
# Revision: 3
# Processed by: cddbd v1.5.1PL0 Copyright (c) Steve Scherf et al.
# Submitted via: ExactAudioCopy v0.95a4
# Normalized: r1:TDELIM( - ),TSWAP
#
DISCID=7212211a
DTITLE=Motown - Hitsville USA: The Motown Collection 3
DYEAR=1900
DGENRE=Blues
TTITLE0=The Four Tops - Reach Out (I'll Be There)
TTITLE1=The Temptations - (I Know) I'm Losing You
TTITLE2=The Four Tops - Standing in the Shadows of Love
TTITLE3=Kim Weston and Marvin Gaye - It Takes Two
TTITLE4=The Marvelettes - Hunter Gets Captured by the Game
TTITLE5=The Marvelettes - Jimmy Mack
TTITLE6=The Four Tops - Bernadette
TTITLE7=Marvin Gaye and Tammi Terrell - Ain't No Mountain High Enough
TTITLE8=Smokey Robinson and the Miracles - More Love
TTITLE9=Gladys Knight and the Pips - I Heard It Through the Grapevine
TTITLE10=Smokey Robinson and the Miracles - I Second That Emotion
TTITLE11=The Temptations - I Wish It Would Rain
TTITLE12=Bobby Taylor - Does Your Mama Know About Me
TTITLE13=Marvin Gaye, Nickolas Ashford and Tammi Terrell - Ain't Nothing Like the Real Thing
TTITLE14=Diana Ross and The Supremes - Love Child
TTITLE15=Stevie Wonder - For Once in My Life
TTITLE16=The Temptations - Cloud Nine
TTITLE17=Marvin Gaye - I Heard It Through the Grapevine
TTITLE18=Smokey Robinson and the Miracles - Baby, Baby Don't Cry
TTITLE19=Edwin Starr - Twenty Five Miles
TTITLE20=David Ruffin - My Whole World Ended (The Moment You Left Me)
TTITLE21=Junior Walker and the All-Stars - What Does It Take (To Win Your Love)
TTITLE22=The Temptations - I Can't Get Next to You
TTITLE23=The Originals - Baby, I'm for Real
TTITLE24=The Supremes - Up the Ladder to the Roof
TTITLE25=Rita Wright - I Can't Give Back the Love I Feel for You
EXTD=
EXTT0=
EXTT1=
EXTT2=
EXTT3=
EXTT4=
EXTT5=
EXTT6=
EXTT7=
EXTT8=
EXTT9=
EXTT10=
EXTT11=
EXTT12=
EXTT13=
EXTT14=
EXTT15=
EXTT16=
EXTT17=
EXTT18=
EXTT19=
EXTT20=
EXTT21=
EXTT22=
EXTT23=
EXTT24=
EXTT25=
PLAYORDER=
